<?xml version="1.0" encoding="UTF-8"?>
<svg id="Layer_2" data-name="Layer 2" xmlns="http://www.w3.org/2000/svg" viewBox="0 0 1439.12 1439.12">
  <defs>
    <style>
      .cls-1 {
        fill: #9ba19f;
      }

      .cls-2 {
        stroke: #dee2e6;
        stroke-width: 50px;
      }

      .cls-2, .cls-3, .cls-4 {
        fill: none;
      }

      .cls-2, .cls-4 {
        stroke-linecap: round;
        stroke-linejoin: round;
      }

      .cls-5 {
        fill: #202020;
      }

      .cls-6 {
        fill: #dee2e6;
      }

      .cls-4 {
        stroke: #202020;
        stroke-width: 100px;
      }
    </style>
  </defs>
  <g id="bg">
    <rect id="bounds-setup" class="cls-5" width="1439.12" height="1439.12"/>
  </g>
  <g id="B">
    <g>
      <g id="top_" data-name="top )">
        <path class="cls-3" d="m379.49,383.68c-13.05,0-23.63,10.91-23.63,24.37h0c0,13.46,10.58,24.37,23.63,24.37h67.44v-48.75h-67.44Z"/>
        <path class="cls-1" d="m803.04,383.68h-356.1v48.75h356.1c13.05,0,23.63-10.91,23.63-24.37h0c0-13.46-10.58-24.37-23.63-24.37Z"/>
      </g>
      <g id="bottom_" data-name="bottom )">
        <path class="cls-3" d="m401.01,910.07c-13.05,0-23.63,10.91-23.63,24.37h0c0,13.46,10.58,24.37,23.63,24.37h67.44v-48.75h-67.44Z"/>
        <path class="cls-1" d="m823.22,906.73h-376.28v48.75h376.28c13.79,0,24.97-10.91,24.97-24.37h0c0-13.46-11.18-24.37-24.97-24.37Z"/>
      </g>
      <g>
        <path class="cls-1" d="m1160.49,795.46c-22.08-41.73-49.99-74.23-83.74-97.53-33.75-23.28-68.25-36.2-103.49-38.78v-9.21c50.13-13.31,92.19-40.44,126.18-81.39,33.99-40.95,51-97.26,51-168.93,0-85.47-27.3-156.62-81.89-213.44-54.59-56.82-135.99-85.24-244.18-85.24h-377.43s-91.08-34.78-91.08-34.78l-109.87-3.56,200.94,135.85h0s105.71,0,105.71,0h279.62v.13c69.89,1.65,122.99,20.54,159.23,56.69,37.96,37.88,56.96,86.78,56.96,146.67s-19.85,113.38-59.56,154.33c-39.61,40.85-91.83,61.33-156.63,61.42h0s-.46,0-.46,0h-384.88l-101.25-38.61-99.69-3.56,200.94,135.85h400.52c49.11,0,91.92,10.38,128.4,31.1,36.49,20.74,64.9,48.65,85.25,83.71,20.35,35.06,30.53,74.08,30.53,117.08,0,58.89-20.35,107.64-61.05,146.28-40.7,38.66-103.23,57.97-187.6,57.97h-396.05v.02l-91.08-34.78-109.87-3.56,200.94,135.85h398.28c119.11,0,206.96-28.4,263.54-85.22,56.58-56.82,84.87-128.75,84.87-215.78,0-57.33-11.06-106.84-33.13-148.58Z"/>
        <polygon class="cls-1" points="446.94 383.68 281.31 320.43 286.99 324.26 446.94 432.43 446.94 383.68"/>
        <polygon class="cls-1" points="446.94 906.73 281.31 843.47 286.99 847.31 446.94 955.48 446.94 906.73"/>
      </g>
    </g>
  </g>
  <g id="Installer">
    <g id="Box">
      <rect class="cls-4" x="764" y="1195.73" width="496.56" height="160.64" rx="50" ry="50"/>
      <rect class="cls-2" x="764" y="1195.73" width="496.56" height="160.64" rx="50" ry="50"/>
      <circle class="cls-6" cx="1185.42" cy="1276.06" r="25"/>
    </g>
    <g id="Arrow">
      <g id="Installer-2" data-name="Installer">
        <polyline class="cls-4" points="1012.64 573.24 1012.64 1115.95 801.34 904.65"/>
        <line class="cls-4" x1="1012.64" y1="1115.95" x2="1224.66" y2="903.93"/>
      </g>
      <g id="Installer-3" data-name="Installer">
        <polyline class="cls-2" points="1012.28 573.24 1012.28 1115.95 800.98 904.65"/>
        <line class="cls-2" x1="1012.28" y1="1115.95" x2="1224.3" y2="903.93"/>
      </g>
    </g>
  </g>
</svg>