<?xml version="1.0" encoding="UTF-8"?>
<svg id="Layer_2" data-name="Layer 2" xmlns="http://www.w3.org/2000/svg" viewBox="0 0 2805.32 601.02">
  <defs>
    <style>
      .cls-1 {
        stroke: #231f20;
        stroke-miterlimit: 10;
        stroke-width: .5px;
      }

      .cls-1, .cls-2 {
        fill: #9ba19f;
      }

      .cls-3 {
        fill: none;
      }
    </style>
  </defs>
  <g id="Bookord">
    <g id="ookrd">
      <g>
        <path class="cls-1" d="m523.8,483.81c-16.3-33.82-24.46-72.86-24.46-117.09s8.16-84.11,24.46-118.07c16.31-33.95,38.82-60.5,67.55-79.62,28.73-19.12,61.99-28.69,99.78-28.69,22.14,0,42.75,3.36,61.88,10.01-22.55-10.17-47.38-15.27-74.54-15.27-37.21,0-69.95,9.42-98.24,28.25-28.29,18.83-50.46,44.97-66.52,78.4-16.05,33.44-24.08,72.19-24.08,116.26s8.03,81.99,24.08,115.3c10.66,22.12,24.03,41.02,40.09,56.76-11.63-13.48-21.63-28.88-30-46.23Z"/>
        <path class="cls-2" d="m718.95,601.02c-37.21,0-69.95-9.42-98.24-28.25s-50.46-44.9-66.52-78.21c-16.05-33.3-24.08-71.74-24.08-115.3s8.03-82.82,24.08-116.26c16.06-33.44,38.23-59.57,66.52-78.4,28.29-18.83,61.03-28.25,98.24-28.25s69.63,9.42,98.05,28.25c28.41,18.83,50.65,44.97,66.71,78.4,16.06,33.44,24.08,72.19,24.08,116.26s-8.03,81.99-24.08,115.3c-16.05,33.31-38.29,59.38-66.71,78.21-28.42,18.83-61.1,28.25-98.05,28.25Zm0-47.27c29.3,0,54.09-7.94,74.35-23.83,20.26-15.88,35.74-37.02,46.45-63.41,10.7-26.39,16.06-55.47,16.06-87.24s-5.35-61.3-16.06-87.82c-10.7-26.52-26.25-47.78-46.64-63.8-20.39-16.01-45.11-24.02-74.16-24.02s-53.71,8.01-73.97,24.02c-20.26,16.02-35.74,37.28-46.45,63.8-10.7,26.52-16.05,55.79-16.05,87.82s5.29,60.86,15.86,87.24c10.57,26.39,26.05,47.53,46.45,63.41,20.39,15.89,45.11,23.83,74.16,23.83Z"/>
      </g>
      <g>
        <path class="cls-1" d="m966.91,483.81c-16.3-33.82-24.46-72.86-24.46-117.09s8.16-84.11,24.46-118.07c16.31-33.95,38.82-60.5,67.55-79.62,28.73-19.12,61.99-28.69,99.78-28.69,22.14,0,42.75,3.36,61.88,10.01-22.55-10.17-47.38-15.27-74.54-15.27-37.21,0-69.95,9.42-98.24,28.25-28.29,18.83-50.46,44.97-66.52,78.4-16.05,33.44-24.08,72.19-24.08,116.26s8.03,81.99,24.08,115.3c10.66,22.12,24.03,41.02,40.09,56.76-11.63-13.48-21.63-28.88-30-46.23Z"/>
        <path class="cls-2" d="m1162.05,601.02c-37.21,0-69.95-9.42-98.24-28.25-28.29-18.83-50.46-44.9-66.52-78.21-16.05-33.3-24.08-71.74-24.08-115.3s8.03-82.82,24.08-116.26c16.06-33.44,38.23-59.57,66.52-78.4,28.29-18.83,61.03-28.25,98.24-28.25s69.63,9.42,98.05,28.25c28.41,18.83,50.65,44.97,66.71,78.4,16.06,33.44,24.08,72.19,24.08,116.26s-8.03,81.99-24.08,115.3c-16.05,33.31-38.29,59.38-66.71,78.21-28.42,18.83-61.1,28.25-98.05,28.25Zm0-47.27c29.3,0,54.09-7.94,74.35-23.83,20.26-15.88,35.74-37.02,46.45-63.41,10.7-26.39,16.06-55.47,16.06-87.24s-5.35-61.3-16.06-87.82c-10.7-26.52-26.25-47.78-46.64-63.8-20.39-16.01-45.11-24.02-74.16-24.02s-53.71,8.01-73.97,24.02c-20.26,16.02-35.74,37.28-46.45,63.8-10.7,26.52-16.05,55.79-16.05,87.82s5.29,60.86,15.86,87.24c10.57,26.39,26.05,47.53,46.45,63.41,20.39,15.89,45.11,23.83,74.16,23.83Z"/>
      </g>
      <g>
        <polygon class="cls-2" points="1472.11 19.15 1426.62 1.78 1371.75 0 1472.11 67.85 1472.11 19.15"/>
        <polygon class="cls-2" points="1712.37 191.49 1741.22 162.3 1695.74 144.93 1640.87 143.15 1712.37 191.49"/>
        <polygon class="cls-2" points="1420.12 560.7 1371.75 559.14 1420.12 591.8 1472.11 591.8 1420.12 560.7"/>
        <polygon class="cls-2" points="1685.79 560.7 1637.42 559.14 1685.79 591.8 1737.78 591.8 1685.79 560.7"/>
        <path class="cls-2" d="m1420.12,591.8V19.15h51.99v344.36h6.12l197.63-201.39h65.37l-181.58,184.86,192.66,244.82h-66.51l-165.14-211-48.55,46.12v164.88h-51.99Z"/>
      </g>
      <g>
        <path class="cls-1" d="m1764.5,483.81c-16.3-33.82-24.46-72.86-24.46-117.09s8.16-84.11,24.46-118.07c16.31-33.95,38.82-60.5,67.55-79.62,28.73-19.12,61.99-28.69,99.78-28.69,22.14,0,42.75,3.36,61.88,10.01-22.55-10.17-47.38-15.27-74.54-15.27-37.21,0-69.95,9.42-98.24,28.25s-50.46,44.97-66.52,78.4c-16.05,33.44-24.08,72.19-24.08,116.26s8.03,81.99,24.08,115.3c10.66,22.12,24.03,41.02,40.09,56.76-11.63-13.48-21.63-28.88-30-46.23Z"/>
        <path class="cls-2" d="m1959.64,601.02c-37.21,0-69.95-9.42-98.24-28.25-28.29-18.83-50.46-44.9-66.52-78.21-16.05-33.3-24.08-71.74-24.08-115.3s8.03-82.82,24.08-116.26c16.06-33.44,38.23-59.57,66.52-78.4,28.29-18.83,61.03-28.25,98.24-28.25s69.63,9.42,98.05,28.25c28.41,18.83,50.65,44.97,66.71,78.4,16.06,33.44,24.08,72.19,24.08,116.26s-8.03,81.99-24.08,115.3c-16.05,33.31-38.29,59.38-66.71,78.21-28.42,18.83-61.1,28.25-98.05,28.25Zm0-47.27c29.3,0,54.09-7.94,74.35-23.83,20.26-15.88,35.74-37.02,46.45-63.41,10.7-26.39,16.06-55.47,16.06-87.24s-5.35-61.3-16.06-87.82c-10.7-26.52-26.25-47.78-46.64-63.8-20.39-16.01-45.11-24.02-74.16-24.02s-53.71,8.01-73.97,24.02c-20.26,16.02-35.74,37.28-46.45,63.8-10.7,26.52-16.05,55.79-16.05,87.82s5.29,60.86,15.86,87.24c10.57,26.39,26.05,47.53,46.45,63.41,20.39,15.89,45.11,23.83,74.16,23.83Z"/>
      </g>
      <g>
        <g>
          <path class="cls-2" d="m2260.17,215.88c8.53-22.36,23.59-40.23,45.19-53.62,19.63-12.17,41.46-18.79,65.48-19.9-1.18,0-2.32-.02-3.43-.02-26.51,0-50.4,6.6-71.68,19.79-21.28,13.2-36.12,30.81-44.53,52.85l-2.11,80.33c.78-15.18,4.13-29.02,10.09-41.52l1-37.92Z"/>
          <path class="cls-2" d="m2249.09,295.32c-.12,2.27-.18,4.58-.18,6.91l.18-6.91Z"/>
        </g>
        <path class="cls-2" d="m2217.92,591.8V162.12h50.46v66.87h3.82c8.41-22.03,23.25-39.65,44.53-52.85,21.28-13.19,45.17-19.79,71.68-19.79,4.07,0,8.66.07,13.76.19,5.09.13,9.3.32,12.62.58v52.27c-1.79-.25-5.61-.77-11.47-1.54-5.87-.77-12.23-1.15-19.11-1.15-33.13,0-60.46,10.32-82,30.94-21.54,20.63-32.3,46.83-32.3,78.59v275.56h-51.99Z"/>
        <polygon class="cls-2" points="2268.38 162.12 2222.89 144.75 2168.02 142.97 2268.38 210.82 2268.38 162.12"/>
        <polygon class="cls-2" points="2217.86 560.7 2169.49 559.14 2217.86 591.8 2269.85 591.8 2217.86 560.7"/>
      </g>
      <g>
        <path class="cls-2" d="m2442.22,483.99c-14.89-33.98-22.34-73.61-22.34-118.9s7.51-84.41,22.53-118.12c15.02-33.71,35.93-60.01,62.73-78.89,26.79-18.87,57.81-28.3,93.02-28.3,20.18,0,37.77,2.78,52.81,8.33-17.01-8.67-38-13.02-63.04-13.02-34.66,0-65.19,9.29-91.56,27.86-26.38,18.58-46.96,44.46-61.74,77.64-14.78,33.18-22.17,71.93-22.17,116.26s7.33,83.58,21.98,117.03c7.8,17.79,17.26,33.46,28.34,47.05-7.78-11.12-14.65-23.42-20.58-36.93Z"/>
        <polygon class="cls-2" points="2805.32 19.15 2759.84 1.78 2704.97 0 2805.32 67.85 2805.32 19.15"/>
        <path class="cls-2" d="m2618.01,601.02c-34.92,0-65.5-9.28-91.74-27.86-26.25-18.57-46.7-44.58-61.35-78.02-14.66-33.44-21.98-72.45-21.98-117.03s7.39-83.07,22.17-116.26c14.78-33.18,35.36-59.05,61.74-77.63,26.38-18.57,56.89-27.86,91.55-27.86,25.99,0,47.65,4.68,64.99,14.03,17.33,9.36,31.28,20.82,41.86,34.4,10.57,13.58,18.67,26.9,24.27,39.97h4.21V19.15h51.61v572.65h-50.08v-80.32h-5.73c-5.61,13.33-13.76,26.9-24.47,40.74-10.7,13.84-24.79,25.43-42.24,34.78-17.46,9.35-39.06,14.03-64.8,14.03Zm6.88-47.27c27.52,0,50.9-7.55,70.15-22.68,19.24-15.11,33.89-35.93,43.96-62.45,10.06-26.52,15.1-56.81,15.1-90.89s-5.04-64.18-15.1-90.32c-10.07-26.13-24.72-46.63-43.96-61.49-19.24-14.86-42.62-22.29-70.15-22.29s-51.67,7.69-70.91,23.06c-19.24,15.37-33.83,36.19-43.77,62.45-9.94,26.27-14.91,55.79-14.91,88.59s5.03,62.84,15.1,89.36c10.06,26.52,24.72,47.6,43.96,63.22,19.24,15.63,42.75,23.44,70.53,23.44Z"/>
      </g>
    </g>
    <g id="B">
      <g>
        <g id="top_" data-name="top )">
          <path class="cls-3" d="m66.67,161.61c-6.52,0-11.8,5.45-11.8,12.17h0c0,6.72,5.28,12.17,11.8,12.17h33.68v-24.35h-33.68Z"/>
          <path class="cls-2" d="m278.21,161.61H100.36v24.35h177.85c6.52,0,11.8-5.45,11.8-12.17h0c0-6.72-5.28-12.17-11.8-12.17Z"/>
        </g>
        <g id="bottom_" data-name="bottom )">
          <path class="cls-3" d="m77.42,424.51c-6.52,0-11.8,5.45-11.8,12.17h0c0,6.72,5.28,12.17,11.8,12.17h33.68v-24.35h-33.68Z"/>
          <path class="cls-2" d="m288.29,422.84H100.36v24.35h187.93c6.89,0,12.47-5.45,12.47-12.17h0c0-6.72-5.58-12.17-12.47-12.17Z"/>
        </g>
        <g>
          <path class="cls-2" d="m456.73,367.27c-11.03-20.84-24.97-37.07-41.82-48.71-16.86-11.63-34.09-18.08-51.69-19.37v-4.6c25.03-6.65,46.04-20.2,63.02-40.65,16.97-20.45,25.47-48.58,25.47-84.37,0-42.69-13.63-78.22-40.9-106.6-27.27-28.38-67.92-42.57-121.95-42.57H100.36S54.87,3.02,54.87,3.02L0,1.25l100.36,67.85h0s52.8,0,52.8,0h139.65v.07c34.91.82,61.42,10.26,79.52,28.31,18.96,18.92,28.45,43.34,28.45,73.25s-9.91,56.62-29.74,77.08c-19.78,20.4-45.86,30.63-78.23,30.68h0s-.23,0-.23,0H100.36l-50.57-19.28-49.79-1.78,100.36,67.85h200.03c24.53,0,45.91,5.18,64.13,15.53,18.22,10.36,32.41,24.3,42.57,41.81s15.25,37,15.25,58.47c0,29.41-10.16,53.76-30.49,73.06-20.33,19.31-51.56,28.95-93.69,28.95H100.36s-45.49-17.36-45.49-17.36l-54.87-1.78,100.36,67.85h198.91c59.49,0,103.36-14.18,131.62-42.56,28.26-28.38,42.39-64.3,42.39-107.77,0-28.63-5.52-53.36-16.55-74.2Z"/>
          <polygon class="cls-2" points="100.36 161.61 17.64 130.02 20.47 131.94 100.36 185.96 100.36 161.61"/>
          <polygon class="cls-2" points="100.36 422.84 17.64 391.24 20.47 393.16 100.36 447.18 100.36 422.84"/>
        </g>
      </g>
    </g>
  </g>
</svg>