<?xml version="1.0" encoding="UTF-8"?>
<svg id="Layer_2" data-name="Layer 2" xmlns="http://www.w3.org/2000/svg" viewBox="0 0 3182.62 1024">
  <defs>
    <style>
      .cls-1 {
        stroke-width: .5px;
      }

      .cls-1, .cls-2 {
        fill: #9ba19f;
      }

      .cls-1, .cls-3 {
        stroke: #231f20;
        stroke-miterlimit: 10;
      }

      .cls-4, .cls-3 {
        fill: #202020;
      }

      .cls-5 {
        fill: none;
      }
    </style>
  </defs>
  <g id="bg">
    <rect id="bounds" class="cls-5" width="3182.62" height="1024"/>
    <rect id="fill" class="cls-4" width="3182.62" height="1024"/>
  </g>
  <g id="Bookord">
    <g id="ookrd">
      <g>
        <path class="cls-1" d="m866.27,794.77c-37.21,0-69.95-9.42-98.24-28.25-28.29-18.83-50.46-44.9-66.52-78.21-16.05-33.3-24.08-71.74-24.08-115.3s8.03-82.82,24.08-116.26c16.06-33.44,38.23-59.57,66.52-78.4,28.29-18.83,61.03-28.25,98.24-28.25s69.63,9.42,98.05,28.25c28.41,18.83,50.65,44.97,66.71,78.4,16.06,33.44,24.08,72.19,24.08,116.26s-8.03,81.99-24.08,115.3c-16.05,33.31-38.29,59.38-66.71,78.21-28.42,18.83-61.1,28.25-98.05,28.25Zm0-47.27c29.3,0,54.09-7.94,74.35-23.83,20.26-15.88,35.74-37.02,46.45-63.41,10.7-26.39,16.06-55.47,16.06-87.24s-5.35-61.3-16.06-87.82c-10.7-26.52-26.25-47.78-46.64-63.8-20.39-16.01-45.11-24.02-74.16-24.02s-53.71,8.01-73.97,24.02c-20.26,16.02-35.74,37.28-46.45,63.8-10.7,26.52-16.05,55.79-16.05,87.82s5.29,60.86,15.86,87.24c10.57,26.39,26.05,47.53,46.45,63.41,20.39,15.89,45.11,23.83,74.16,23.83Z"/>
        <path class="cls-3" d="m1046.24,463.67c-16.3-33.95-38.88-60.5-67.74-79.62-28.86-19.12-62.05-28.69-99.58-28.69s-71.05,9.57-99.78,28.69c-28.73,19.12-51.24,45.67-67.55,79.62-16.3,33.96-24.46,73.32-24.46,118.07s8.16,83.27,24.46,117.09c16.31,33.83,38.82,60.31,67.55,79.43,28.73,19.12,61.99,28.69,99.78,28.69s70.72-9.57,99.58-28.69c28.86-19.12,51.44-45.6,67.74-79.43,16.31-33.82,24.46-72.86,24.46-117.09s-8.15-84.11-24.46-118.07Z"/>
        <path class="cls-2" d="m906.74,816.04c-37.21,0-69.95-9.42-98.24-28.25-28.29-18.83-50.46-44.9-66.52-78.21-16.05-33.3-24.08-71.74-24.08-115.3s8.03-82.82,24.08-116.26c16.06-33.44,38.23-59.57,66.52-78.4,28.29-18.83,61.03-28.25,98.24-28.25s69.63,9.42,98.05,28.25c28.41,18.83,50.65,44.97,66.71,78.4,16.06,33.44,24.08,72.19,24.08,116.26s-8.03,81.99-24.08,115.3c-16.05,33.31-38.29,59.38-66.71,78.21-28.42,18.83-61.1,28.25-98.05,28.25Zm0-47.27c29.3,0,54.09-7.94,74.35-23.83,20.26-15.88,35.74-37.02,46.45-63.41,10.7-26.39,16.06-55.47,16.06-87.24s-5.35-61.3-16.06-87.82c-10.7-26.52-26.25-47.78-46.64-63.8-20.39-16.01-45.11-24.02-74.16-24.02s-53.71,8.01-73.97,24.02c-20.26,16.02-35.74,37.28-46.45,63.8-10.7,26.52-16.05,55.79-16.05,87.82s5.29,60.86,15.86,87.24c10.57,26.39,26.05,47.53,46.45,63.41,20.39,15.89,45.11,23.83,74.16,23.83Z"/>
      </g>
      <g>
        <path class="cls-1" d="m1309.37,794.77c-37.21,0-69.95-9.42-98.24-28.25-28.29-18.83-50.46-44.9-66.52-78.21-16.05-33.3-24.08-71.74-24.08-115.3s8.03-82.82,24.08-116.26c16.06-33.44,38.23-59.57,66.52-78.4,28.29-18.83,61.03-28.25,98.24-28.25s69.63,9.42,98.05,28.25c28.41,18.83,50.65,44.97,66.71,78.4,16.06,33.44,24.08,72.19,24.08,116.26s-8.03,81.99-24.08,115.3c-16.05,33.31-38.29,59.38-66.71,78.21-28.42,18.83-61.1,28.25-98.05,28.25Zm0-47.27c29.3,0,54.09-7.94,74.35-23.83,20.26-15.88,35.74-37.02,46.45-63.41,10.7-26.39,16.06-55.47,16.06-87.24s-5.35-61.3-16.06-87.82c-10.7-26.52-26.25-47.78-46.64-63.8-20.39-16.01-45.11-24.02-74.16-24.02s-53.71,8.01-73.97,24.02c-20.26,16.02-35.74,37.28-46.45,63.8-10.7,26.52-16.05,55.79-16.05,87.82s5.29,60.86,15.86,87.24c10.57,26.39,26.05,47.53,46.45,63.41,20.39,15.89,45.11,23.83,74.16,23.83Z"/>
        <path class="cls-3" d="m1489.35,463.67c-16.3-33.95-38.88-60.5-67.74-79.62-28.86-19.12-62.05-28.69-99.58-28.69s-71.05,9.57-99.78,28.69c-28.73,19.12-51.24,45.67-67.55,79.62-16.3,33.96-24.46,73.32-24.46,118.07s8.16,83.27,24.46,117.09c16.31,33.83,38.82,60.31,67.55,79.43,28.73,19.12,61.99,28.69,99.78,28.69s70.72-9.57,99.58-28.69c28.86-19.12,51.44-45.6,67.74-79.43,16.31-33.82,24.46-72.86,24.46-117.09s-8.15-84.11-24.46-118.07Z"/>
        <path class="cls-2" d="m1349.85,816.04c-37.21,0-69.95-9.42-98.24-28.25-28.29-18.83-50.46-44.9-66.52-78.21-16.05-33.3-24.08-71.74-24.08-115.3s8.03-82.82,24.08-116.26c16.06-33.44,38.23-59.57,66.52-78.4,28.29-18.83,61.03-28.25,98.24-28.25s69.63,9.42,98.05,28.25c28.41,18.83,50.65,44.97,66.71,78.4,16.06,33.44,24.08,72.19,24.08,116.26s-8.03,81.99-24.08,115.3c-16.05,33.31-38.29,59.38-66.71,78.21-28.42,18.83-61.1,28.25-98.05,28.25Zm0-47.27c29.3,0,54.09-7.94,74.35-23.83,20.26-15.88,35.74-37.02,46.45-63.41,10.7-26.39,16.06-55.47,16.06-87.24s-5.35-61.3-16.06-87.82c-10.7-26.52-26.25-47.78-46.64-63.8-20.39-16.01-45.11-24.02-74.16-24.02s-53.71,8.01-73.97,24.02c-20.26,16.02-35.74,37.28-46.45,63.8-10.7,26.52-16.05,55.79-16.05,87.82s5.29,60.86,15.86,87.24c10.57,26.39,26.05,47.53,46.45,63.41,20.39,15.89,45.11,23.83,74.16,23.83Z"/>
      </g>
      <g>
        <polygon class="cls-2" points="1659.9 234.17 1614.41 216.8 1559.54 215.02 1659.9 282.87 1659.9 234.17"/>
        <polygon class="cls-2" points="1900.17 406.51 1929.02 377.32 1883.53 359.95 1828.66 358.17 1900.17 406.51"/>
        <polygon class="cls-2" points="1607.91 775.72 1559.54 774.16 1607.91 806.82 1659.9 806.82 1607.91 775.72"/>
        <polygon class="cls-2" points="1873.58 775.72 1825.22 774.16 1873.58 806.82 1925.57 806.82 1873.58 775.72"/>
        <path class="cls-2" d="m1607.91,806.82V234.17h51.99v344.36h6.12l197.63-201.39h65.37l-181.58,184.86,192.66,244.82h-66.51l-165.14-211-48.55,46.12v164.88h-51.99Z"/>
      </g>
      <g>
        <path class="cls-1" d="m2106.96,794.77c-37.21,0-69.95-9.42-98.24-28.25-28.29-18.83-50.46-44.9-66.52-78.21-16.05-33.3-24.08-71.74-24.08-115.3s8.03-82.82,24.08-116.26c16.06-33.44,38.23-59.57,66.52-78.4,28.29-18.83,61.03-28.25,98.24-28.25s69.63,9.42,98.05,28.25c28.41,18.83,50.65,44.97,66.71,78.4,16.06,33.44,24.08,72.19,24.08,116.26s-8.03,81.99-24.08,115.3c-16.05,33.31-38.29,59.38-66.71,78.21-28.42,18.83-61.1,28.25-98.05,28.25Zm0-47.27c29.3,0,54.09-7.94,74.35-23.83,20.26-15.88,35.74-37.02,46.45-63.41,10.7-26.39,16.06-55.47,16.06-87.24s-5.35-61.3-16.06-87.82c-10.7-26.52-26.25-47.78-46.64-63.8-20.39-16.01-45.11-24.02-74.16-24.02s-53.71,8.01-73.97,24.02c-20.26,16.02-35.74,37.28-46.45,63.8-10.7,26.52-16.05,55.79-16.05,87.82s5.29,60.86,15.86,87.24c10.57,26.39,26.05,47.53,46.45,63.41,20.39,15.89,45.11,23.83,74.16,23.83Z"/>
        <path class="cls-3" d="m2286.94,463.67c-16.3-33.95-38.88-60.5-67.74-79.62-28.86-19.12-62.05-28.69-99.58-28.69s-71.05,9.57-99.78,28.69c-28.73,19.12-51.24,45.67-67.55,79.62-16.3,33.96-24.46,73.32-24.46,118.07s8.16,83.27,24.46,117.09c16.31,33.83,38.82,60.31,67.55,79.43,28.73,19.12,61.99,28.69,99.78,28.69s70.72-9.57,99.58-28.69c28.86-19.12,51.44-45.6,67.74-79.43,16.31-33.82,24.46-72.86,24.46-117.09s-8.15-84.11-24.46-118.07Z"/>
        <path class="cls-2" d="m2147.44,816.04c-37.21,0-69.95-9.42-98.24-28.25-28.29-18.83-50.46-44.9-66.52-78.21-16.05-33.3-24.08-71.74-24.08-115.3s8.03-82.82,24.08-116.26c16.06-33.44,38.23-59.57,66.52-78.4,28.29-18.83,61.03-28.25,98.24-28.25s69.63,9.42,98.05,28.25c28.41,18.83,50.65,44.97,66.71,78.4,16.06,33.44,24.08,72.19,24.08,116.26s-8.03,81.99-24.08,115.3c-16.05,33.31-38.29,59.38-66.71,78.21-28.42,18.83-61.1,28.25-98.05,28.25Zm0-47.27c29.3,0,54.09-7.94,74.35-23.83,20.26-15.88,35.74-37.02,46.45-63.41,10.7-26.39,16.06-55.47,16.06-87.24s-5.35-61.3-16.06-87.82c-10.7-26.52-26.25-47.78-46.64-63.8-20.39-16.01-45.11-24.02-74.16-24.02s-53.71,8.01-73.97,24.02c-20.26,16.02-35.74,37.28-46.45,63.8-10.7,26.52-16.05,55.79-16.05,87.82s5.29,60.86,15.86,87.24c10.57,26.39,26.05,47.53,46.45,63.41,20.39,15.89,45.11,23.83,74.16,23.83Z"/>
      </g>
      <g>
        <path class="cls-2" d="m2438.99,430.01c8.41-22.03,23.25-39.65,44.53-52.85,21.28-13.19,45.17-19.79,71.68-19.79,4.07,0,8.66.07,13.76.19,5.09.13,9.3.32,12.62.58v52.27c-1.79-.25-5.61-.77-11.47-1.54-5.87-.77-12.23-1.15-19.11-1.15-33.13,0-60.46,10.32-82,30.94-21.54,20.63-32.3,46.83-32.3,78.59"/>
        <path class="cls-4" d="m2447.97,430.9c8.53-22.36,23.59-40.23,45.19-53.62,21.59-13.39,45.83-20.08,72.72-20.08,4.13,0,8.79.07,13.96.19,5.17.13,9.44.33,12.8.58v53.03c-1.81-.26-6.6,9.41-11.81,12.39-8.57,4.89-12.84,6.17-17.62,11.26-3.43,3.65-5.32,9.18-27.17,30.1-21.85,20.93-16.9,16.64-90.4,54.66"/>
        <path class="cls-2" d="m2405.71,806.82v-429.68h50.46v66.87h3.82c8.41-22.03,23.25-39.65,44.53-52.85,21.28-13.19,45.17-19.79,71.68-19.79,4.07,0,8.66.07,13.76.19,5.09.13,9.3.32,12.62.58v52.27c-1.79-.25-5.61-.77-11.47-1.54-5.87-.77-12.23-1.15-19.11-1.15-33.13,0-60.46,10.32-82,30.94-21.54,20.63-32.3,46.83-32.3,78.59v275.56h-51.99Z"/>
        <polygon class="cls-2" points="2456.17 377.14 2410.68 359.76 2355.81 357.99 2456.17 425.84 2456.17 377.14"/>
        <polygon class="cls-2" points="2405.66 775.72 2357.29 774.16 2405.66 806.82 2457.65 806.82 2405.66 775.72"/>
      </g>
      <g>
        <path class="cls-2" d="m2906.84,438.49c-5.6-13.07-13.69-26.38-24.27-39.96-10.58-13.57-24.53-25.04-41.85-34.4-17.34-9.35-39-14.02-64.99-14.02-34.66,0-65.19,9.29-91.56,27.86-26.38,18.58-46.96,44.46-61.74,77.64-14.78,33.18-22.17,71.93-22.17,116.26s7.33,83.58,21.98,117.03c14.65,33.43,35.1,59.44,61.35,78.02,26.25,18.58,56.84,27.86,91.75,27.86,25.74,0,47.34-4.67,64.8-14.02,17.45-9.35,31.53-20.95,42.24-34.78,10.71-13.84,18.86-27.42,24.46-40.74,0,0,35.05-93.44,35.05-129.79l-35.05-136.94Zm-10.51,223.88c-10.07,26.52-24.72,47.34-43.96,62.45-19.25,15.12-42.62,22.68-70.15,22.68s-51.29-7.82-70.53-23.45c-19.24-15.62-33.89-36.7-43.96-63.22-10.07-26.52-15.09-56.31-15.09-89.36s4.96-62.32,14.9-88.59c9.94-26.26,24.52-47.08,43.77-62.45,19.24-15.37,42.87-23.06,70.91-23.06s50.9,7.44,70.15,22.29c19.24,14.86,33.89,35.36,43.96,61.49,10.07,26.14,15.1,56.25,15.1,90.32s-5.03,64.38-15.1,90.9Z"/>
        <path class="cls-4" d="m2919.16,444.6c-5.69-13.27-13.91-26.8-24.66-40.6-10.75-13.79-24.93-25.44-42.52-34.95-17.62-9.5-39.62-14.25-66.03-14.25-35.22,0-66.23,9.44-93.02,28.3-26.8,18.88-47.71,45.17-62.73,78.89-15.02,33.71-22.53,73.08-22.53,118.12s7.45,84.92,22.34,118.9c14.89,33.97,35.66,60.39,62.33,79.27,26.67,18.88,57.75,28.3,93.22,28.3,26.15,0,48.09-4.75,65.83-14.25,17.73-9.5,32.04-21.28,42.92-35.34,10.88-14.07,19.16-27.86,24.85-41.4,0,0,35.61-94.94,35.61-131.87l-35.61-139.13Z"/>
        <polygon class="cls-2" points="2993.12 234.17 2947.63 216.8 2892.76 215.02 2993.12 282.87 2993.12 234.17"/>
        <path class="cls-2" d="m2805.81,816.04c-34.92,0-65.5-9.28-91.74-27.86-26.25-18.57-46.7-44.58-61.35-78.02-14.66-33.44-21.98-72.45-21.98-117.03s7.39-83.07,22.17-116.26c14.78-33.18,35.36-59.05,61.74-77.63,26.38-18.57,56.89-27.86,91.55-27.86,25.99,0,47.65,4.68,64.99,14.03,17.33,9.36,31.28,20.82,41.86,34.4,10.57,13.58,18.67,26.9,24.27,39.97h4.21v-225.6h51.61v572.65h-50.08v-80.32h-5.73c-5.61,13.33-13.76,26.9-24.47,40.74-10.7,13.84-24.79,25.43-42.24,34.78-17.46,9.35-39.06,14.03-64.8,14.03Zm6.88-47.27c27.52,0,50.9-7.55,70.15-22.68,19.24-15.11,33.89-35.93,43.96-62.45,10.06-26.52,15.1-56.81,15.1-90.89s-5.04-64.18-15.1-90.32c-10.07-26.13-24.72-46.63-43.96-61.49-19.24-14.86-42.62-22.29-70.15-22.29s-51.67,7.69-70.91,23.06c-19.24,15.37-33.83,36.19-43.77,62.45-9.94,26.27-14.91,55.79-14.91,88.59s5.03,62.84,15.1,89.36c10.06,26.52,24.72,47.6,43.96,63.22,19.24,15.63,42.75,23.44,70.53,23.44Z"/>
      </g>
    </g>
    <g>
      <g id="top_" data-name="top )">
        <path class="cls-5" d="m254.47,377.06c-6.52,0-11.8,5.45-11.8,12.17h0c0,6.72,5.28,12.17,11.8,12.17h33.68v-24.35h-33.68Z"/>
        <path class="cls-2" d="m466,377.06h-177.85v24.35h177.85c6.52,0,11.8-5.45,11.8-12.17h0c0-6.72-5.28-12.17-11.8-12.17Z"/>
        <polygon class="cls-2" points="288.15 377.06 205.43 345.47 208.27 347.39 288.15 401.41 288.15 377.06"/>
      </g>
      <g id="bottom_" data-name="bottom )">
        <path class="cls-5" d="m265.22,639.96c-6.52,0-11.8,5.45-11.8,12.17h0c0,6.72,5.28,12.17,11.8,12.17h33.68v-24.35h-33.68Z"/>
        <path class="cls-2" d="m476.08,638.29h-187.93v24.35h187.93c6.89,0,12.47-5.45,12.47-12.17h0c0-6.72-5.58-12.17-12.47-12.17Z"/>
        <polygon class="cls-2" points="288.15 638.29 205.43 606.7 208.27 608.61 288.15 662.64 288.15 638.29"/>
      </g>
      <g>
        <path class="cls-2" d="m633.98,365.87c0-42.69-13.63-78.22-40.9-106.6-27.27-28.38-67.92-42.57-121.95-42.57h-188.5s0,48.7,0,48.7h0s52.8,0,52.8,0h139.65v.07c34.91.82,61.42,10.26,79.52,28.31,18.96,18.92,28.45,43.34,28.45,73.25"/>
        <path class="cls-4" d="m641.32,379.68c1.42-43.29-11.22-79.78-37.93-109.46-26.71-29.69-67.46-45.43-122.26-47.23l-191.16-6.27-26.96-.88-.87,26.48-.75,22.9,80.5,2.64,57.46,25.41,52.96,17.46c35.37,2,10.63-4,44.61,41.65,18.6,19.82,29.47,39.7,92.7,26.78"/>
      </g>
      <path class="cls-2" d="m644.52,582.72c-11.03-20.84-24.97-37.07-41.82-48.71-16.86-11.63-34.09-18.08-51.69-19.37v-4.6c25.03-6.65,46.04-20.2,63.02-40.65,16.97-20.45,25.47-48.58,25.47-84.37,0-42.69-13.63-78.22-40.9-106.6-27.27-28.38-67.92-42.57-121.95-42.57h-188.5s-45.49-17.37-45.49-17.37l-54.87-1.78,100.36,67.85h0s52.8,0,52.8,0h139.65v.07c34.91.82,61.42,10.26,79.52,28.31,18.96,18.92,28.45,43.34,28.45,73.25s-9.91,56.62-29.74,77.08c-19.78,20.4-45.86,30.63-78.23,30.68h0s-.23,0-.23,0h-192.22l-50.57-19.28-49.79-1.78,100.36,67.85h200.03c24.53,0,45.91,5.18,64.13,15.53,18.22,10.36,32.41,24.3,42.57,41.81,10.16,17.51,15.25,37,15.25,58.47,0,29.41-10.16,53.76-30.49,73.06-20.33,19.31-51.56,28.95-93.69,28.95h-197.8s-45.49-17.36-45.49-17.36l-54.87-1.78,100.36,67.85h198.91c59.49,0,103.36-14.18,131.62-42.56,28.26-28.38,42.39-64.3,42.39-107.77,0-28.63-5.52-53.36-16.55-74.2Z"/>
    </g>
  </g>
</svg>