<?xml version="1.0" encoding="UTF-8"?>
<svg id="Layer_2" data-name="Layer 2" xmlns="http://www.w3.org/2000/svg" viewBox="0 0 1792 1792">
  <defs>
    <style>
      .cls-1 {
        fill: #9ba19f;
      }

      .cls-2 {
        fill: #202020;
      }

      .cls-3 {
        fill: none;
      }
    </style>
  </defs>
  <g id="bg">
    <rect id="square" class="cls-2" width="1792" height="1792" rx="320" ry="320"/>
  </g>
  <g id="B">
    <g>
      <g id="top_" data-name="top )">
        <path class="cls-3" d="m555.94,626.13c-13.05,0-23.63,10.91-23.63,24.37h0c0,13.46,10.58,24.37,23.63,24.37h67.44v-48.75h-67.44Z"/>
        <path class="cls-1" d="m979.48,626.13h-356.1v48.75h356.1c13.05,0,23.63-10.91,23.63-24.37h0c0-13.46-10.58-24.37-23.63-24.37Z"/>
      </g>
      <g id="bottom_" data-name="bottom )">
        <path class="cls-3" d="m577.46,1152.51c-13.05,0-23.63,10.91-23.63,24.37h0c0,13.46,10.58,24.37,23.63,24.37h67.44v-48.75h-67.44Z"/>
        <path class="cls-1" d="m999.66,1149.17h-376.28v48.75h376.28c13.79,0,24.97-10.91,24.97-24.37h0c0-13.46-11.18-24.37-24.97-24.37Z"/>
      </g>
      <g>
        <path class="cls-1" d="m1336.93,1037.9c-22.08-41.73-49.99-74.23-83.74-97.53-33.75-23.28-68.25-36.2-103.49-38.78v-9.21c50.13-13.31,92.19-40.44,126.18-81.39,33.99-40.95,51-97.26,51-168.93,0-85.47-27.3-156.62-81.89-213.44-54.59-56.82-135.99-85.24-244.18-85.24h-377.43s-91.08-34.78-91.08-34.78l-109.87-3.56,200.94,135.85h0s105.71,0,105.71,0h279.62v.13c69.89,1.65,122.99,20.54,159.23,56.69,37.96,37.88,56.96,86.78,56.96,146.67s-19.85,113.38-59.56,154.33c-39.61,40.85-91.83,61.33-156.63,61.42h0s-.46,0-.46,0h-384.88l-101.25-38.61-99.69-3.56,200.94,135.85h400.52c49.11,0,91.92,10.38,128.4,31.1,36.49,20.74,64.9,48.65,85.25,83.71,20.35,35.06,30.53,74.08,30.53,117.08,0,58.89-20.35,107.64-61.05,146.28-40.7,38.66-103.23,57.97-187.6,57.97h-396.05v.02l-91.08-34.78-109.87-3.56,200.94,135.85h398.28c119.11,0,206.96-28.4,263.54-85.22,56.58-56.82,84.87-128.75,84.87-215.78,0-57.33-11.06-106.84-33.13-148.58Z"/>
        <polygon class="cls-1" points="623.38 626.12 457.75 562.87 463.43 566.71 623.38 674.87 623.38 626.12"/>
        <polygon class="cls-1" points="623.38 1149.17 457.75 1085.91 463.43 1089.75 623.38 1197.92 623.38 1149.17"/>
      </g>
    </g>
  </g>
</svg>